<svg xmlns="http://www.w3.org/2000/svg" xmlns:xlink="http://www.w3.org/1999/xlink" width="20" height="20" viewBox="0 0 20 20"><defs><style>.a{fill:#979797;}.b{clip-path:url(#a);}</style><clipPath id="a"><rect class="a" width="20" height="20"/></clipPath></defs><g class="b"><g transform="translate(0 0)"><path class="a" d="M8.635,11.73A8.08,8.08,0,0,1,6.2,7.143a.686.686,0,0,1,.2-.574L7.939,5.023a.69.69,0,0,0,.1-.854L5.574.345A.69.69,0,0,0,4.68.094L.727,1.955a.687.687,0,0,0-.38.686A19.107,19.107,0,0,0,6.166,14.2a19.1,19.1,0,0,0,11.558,5.818.687.687,0,0,0,.686-.38l1.862-3.953a.69.69,0,0,0-.25-.893L16.2,12.33a.69.69,0,0,0-.854.1L13.8,13.973a.686.686,0,0,1-.574.2,8.08,8.08,0,0,1-4.588-2.44Z" transform="translate(-0.344 -0.021)"/><path class="a" d="M14.5,7.939V9.3a.345.345,0,0,1-.559.271L10.01,6.485a.345.345,0,0,1,0-.543l3.929-3.087a.345.345,0,0,1,.559.271V4.491a.345.345,0,0,0,.341.345c1.492.019,4.771.262,5.416,3.342a.345.345,0,0,1-.555.333,4.792,4.792,0,0,0-3.13-.918H14.843a.345.345,0,0,0-.345.345Z" transform="translate(-0.344 -0.021)"/></g></g></svg>