<svg xmlns="http://www.w3.org/2000/svg" xmlns:xlink="http://www.w3.org/1999/xlink" width="21" height="21" viewBox="0 0 21 21"><defs><style>.a,.c{fill:#979797;}.a{stroke:#707070;}.b{clip-path:url(#a);}</style><clipPath id="a"><rect class="a" width="21" height="21" transform="translate(-151.432 2652.623)"/></clipPath></defs><g class="b" transform="translate(151.432 -2652.623)"><g transform="translate(-151.432 2652.623)"><path class="c" d="M20.647,9.388,11.225.8A1.072,1.072,0,0,0,9.775.8L.353,9.388a1.077,1.077,0,0,0,.725,1.873h1.5v8.6a.618.618,0,0,0,.618.618H8.365a.618.618,0,0,0,.618-.618V14.64h3.035v5.223a.618.618,0,0,0,.618.618H17.8a.618.618,0,0,0,.618-.618v-8.6h1.505a1.077,1.077,0,0,0,.725-1.873Z"/><path class="c" d="M18.256,1.753H14.108l4.765,4.333V2.37A.618.618,0,0,0,18.256,1.753Z"/></g></g></svg>